<svg xmlns="http://www.w3.org/2000/svg" xmlns:xlink="http://www.w3.org/1999/xlink" contentStyleType="text/css" data-diagram-type="DESCRIPTION" height="624px" preserveAspectRatio="none" style="width:1283px;height:624px;background:#FFFFFF;" version="1.1" viewBox="0 0 1283 624" width="1283px" zoomAndPan="magnify"><title>Fiatsend Network Architecture</title><defs/><g><text fill="#000000" font-family="sans-serif" font-size="14" font-weight="bold" lengthAdjust="spacing" textLength="243.0859" x="512.957" y="22.9951">Fiatsend Network Architecture</text><!--cluster User--><g class="cluster" data-entity="User" data-source-line="3" data-uid="ent0002" id="cluster_User"><polygon fill="none" points="156,53.2969,166,43.2969,639,43.2969,639,167.5869,629,177.5869,156,177.5869,156,53.2969" style="stroke:#181818;stroke-width:1;"/><line style="stroke:#181818;stroke-width:1;" x1="629" x2="639" y1="53.2969" y2="43.2969"/><line style="stroke:#181818;stroke-width:1;" x1="156" x2="629" y1="53.2969" y2="53.2969"/><line style="stroke:#181818;stroke-width:1;" x1="629" x2="629" y1="53.2969" y2="177.5869"/><text fill="#000000" font-family="sans-serif" font-size="14" font-style="italic" lengthAdjust="spacing" textLength="64.6748" x="361.1626" y="69.292">&#171;Person&#187;</text><text fill="#000000" font-family="sans-serif" font-size="14" font-weight="bold" lengthAdjust="spacing" textLength="36.1006" x="375.4497" y="85.5889">User</text></g><!--cluster Merchant--><g class="cluster" data-entity="Merchant" data-source-line="8" data-uid="ent0005" id="cluster_Merchant"><polygon fill="none" points="114,269.2769,124,259.2769,549,259.2769,549,383.5669,539,393.5669,114,393.5669,114,269.2769" style="stroke:#181818;stroke-width:1;"/><line style="stroke:#181818;stroke-width:1;" x1="539" x2="549" y1="269.2769" y2="259.2769"/><line style="stroke:#181818;stroke-width:1;" x1="114" x2="539" y1="269.2769" y2="269.2769"/><line style="stroke:#181818;stroke-width:1;" x1="539" x2="539" y1="269.2769" y2="393.5669"/><text fill="#000000" font-family="sans-serif" font-size="14" font-style="italic" lengthAdjust="spacing" textLength="95.3545" x="279.8228" y="285.272">&#171;Application&#187;</text><text fill="#000000" font-family="sans-serif" font-size="14" font-weight="bold" lengthAdjust="spacing" textLength="74.7031" x="290.1484" y="301.5689">Merchant</text></g><!--cluster Agent--><g class="cluster" data-entity="Agent" data-source-line="13" data-uid="ent0008" id="cluster_Agent"><polygon fill="none" points="16,483.5669,26,473.5669,434,473.5669,434,597.8669,424,607.8669,16,607.8669,16,483.5669" style="stroke:#181818;stroke-width:1;"/><line style="stroke:#181818;stroke-width:1;" x1="424" x2="434" y1="483.5669" y2="473.5669"/><line style="stroke:#181818;stroke-width:1;" x1="16" x2="424" y1="483.5669" y2="483.5669"/><line style="stroke:#181818;stroke-width:1;" x1="424" x2="424" y1="483.5669" y2="607.8669"/><text fill="#000000" font-family="sans-serif" font-size="14" font-style="italic" lengthAdjust="spacing" textLength="68.8721" x="186.564" y="499.562">&#171;Service&#187;</text><text fill="#000000" font-family="sans-serif" font-size="14" font-weight="bold" lengthAdjust="spacing" textLength="47.0107" x="197.4946" y="515.8589">Agent</text></g><!--cluster Liquidity Provider--><g class="cluster" data-entity="Liquidity Provider" data-source-line="18" data-uid="ent0011" id="cluster_Liquidity Provider"><polygon fill="none" points="871,61.2969,881,51.2969,1266,51.2969,1266,159.5869,1256,169.5869,871,169.5869,871,61.2969" style="stroke:#181818;stroke-width:1;"/><line style="stroke:#181818;stroke-width:1;" x1="1256" x2="1266" y1="61.2969" y2="51.2969"/><line style="stroke:#181818;stroke-width:1;" x1="871" x2="1256" y1="61.2969" y2="61.2969"/><line style="stroke:#181818;stroke-width:1;" x1="1256" x2="1256" y1="61.2969" y2="169.5869"/><text fill="#000000" font-family="sans-serif" font-size="14" font-style="italic" lengthAdjust="spacing" textLength="83.9316" x="1022.5342" y="77.292">&#171;Database&#187;</text><text fill="#000000" font-family="sans-serif" font-size="14" font-weight="bold" lengthAdjust="spacing" textLength="141.1484" x="993.9258" y="93.5889">Liquidity Provider</text></g><!--entity Initiates transactions--><g class="entity" data-entity="Initiates transactions" data-source-line="4" data-uid="ent0003" id="entity_Initiates transactions"><rect fill="#F1F1F1" height="46.2969" rx="2.5" ry="2.5" style="stroke:#181818;stroke-width:0.5;" width="187.0752" x="180.46" y="107.2969"/><rect fill="#F1F1F1" height="10" style="stroke:#181818;stroke-width:0.5;" width="15" x="347.5352" y="112.2969"/><rect fill="#F1F1F1" height="2" style="stroke:#181818;stroke-width:0.5;" width="4" x="345.5352" y="114.2969"/><rect fill="#F1F1F1" height="2" style="stroke:#181818;stroke-width:0.5;" width="4" x="345.5352" y="118.2969"/><text fill="#000000" font-family="sans-serif" font-size="14" lengthAdjust="spacing" textLength="147.0752" x="195.46" y="140.292">Initiates transactions</text></g><!--entity Sends/Receives funds--><g class="entity" data-entity="Sends/Receives funds" data-source-line="5" data-uid="ent0004" id="entity_Sends/Receives funds"><rect fill="#F1F1F1" height="46.2969" rx="2.5" ry="2.5" style="stroke:#181818;stroke-width:0.5;" width="193.3096" x="402.35" y="107.2969"/><rect fill="#F1F1F1" height="10" style="stroke:#181818;stroke-width:0.5;" width="15" x="575.6596" y="112.2969"/><rect fill="#F1F1F1" height="2" style="stroke:#181818;stroke-width:0.5;" width="4" x="573.6596" y="114.2969"/><rect fill="#F1F1F1" height="2" style="stroke:#181818;stroke-width:0.5;" width="4" x="573.6596" y="118.2969"/><text fill="#000000" font-family="sans-serif" font-size="14" lengthAdjust="spacing" textLength="153.3096" x="417.35" y="140.292">Sends/Receives funds</text></g><!--entity Payment processing--><g class="entity" data-entity="Payment processing" data-source-line="9" data-uid="ent0006" id="entity_Payment processing"><rect fill="#F1F1F1" height="46.2969" rx="2.5" ry="2.5" style="stroke:#181818;stroke-width:0.5;" width="182.126" x="137.94" y="323.2769"/><rect fill="#F1F1F1" height="10" style="stroke:#181818;stroke-width:0.5;" width="15" x="300.066" y="328.2769"/><rect fill="#F1F1F1" height="2" style="stroke:#181818;stroke-width:0.5;" width="4" x="298.066" y="330.2769"/><rect fill="#F1F1F1" height="2" style="stroke:#181818;stroke-width:0.5;" width="4" x="298.066" y="334.2769"/><text fill="#000000" font-family="sans-serif" font-size="14" lengthAdjust="spacing" textLength="142.126" x="152.94" y="356.272">Payment processing</text></g><!--entity API integrations--><g class="entity" data-entity="API integrations" data-source-line="10" data-uid="ent0007" id="entity_API integrations"><rect fill="#F1F1F1" height="46.2969" rx="2.5" ry="2.5" style="stroke:#181818;stroke-width:0.5;" width="150.7969" x="354.6" y="323.2769"/><rect fill="#F1F1F1" height="10" style="stroke:#181818;stroke-width:0.5;" width="15" x="485.3969" y="328.2769"/><rect fill="#F1F1F1" height="2" style="stroke:#181818;stroke-width:0.5;" width="4" x="483.3969" y="330.2769"/><rect fill="#F1F1F1" height="2" style="stroke:#181818;stroke-width:0.5;" width="4" x="483.3969" y="334.2769"/><text fill="#000000" font-family="sans-serif" font-size="14" lengthAdjust="spacing" textLength="110.7969" x="369.6" y="356.272">API integrations</text></g><!--entity Cash-in/Cash-out--><g class="entity" data-entity="Cash-in/Cash-out" data-source-line="14" data-uid="ent0009" id="entity_Cash-in/Cash-out"><rect fill="#F1F1F1" height="46.2969" rx="2.5" ry="2.5" style="stroke:#181818;stroke-width:0.5;" width="159.5537" x="40.22" y="537.5669"/><rect fill="#F1F1F1" height="10" style="stroke:#181818;stroke-width:0.5;" width="15" x="179.7737" y="542.5669"/><rect fill="#F1F1F1" height="2" style="stroke:#181818;stroke-width:0.5;" width="4" x="177.7737" y="544.5669"/><rect fill="#F1F1F1" height="2" style="stroke:#181818;stroke-width:0.5;" width="4" x="177.7737" y="548.5669"/><text fill="#000000" font-family="sans-serif" font-size="14" lengthAdjust="spacing" textLength="119.5537" x="55.22" y="570.562">Cash-in/Cash-out</text></g><!--entity Local fiat access--><g class="entity" data-entity="Local fiat access" data-source-line="15" data-uid="ent0010" id="entity_Local fiat access"><rect fill="#F1F1F1" height="46.2969" rx="2.5" ry="2.5" style="stroke:#181818;stroke-width:0.5;" width="155.4932" x="235.25" y="537.5669"/><rect fill="#F1F1F1" height="10" style="stroke:#181818;stroke-width:0.5;" width="15" x="370.7432" y="542.5669"/><rect fill="#F1F1F1" height="2" style="stroke:#181818;stroke-width:0.5;" width="4" x="368.7432" y="544.5669"/><rect fill="#F1F1F1" height="2" style="stroke:#181818;stroke-width:0.5;" width="4" x="368.7432" y="548.5669"/><text fill="#000000" font-family="sans-serif" font-size="14" lengthAdjust="spacing" textLength="115.4932" x="250.25" y="570.562">Local fiat access</text></g><!--entity Crypto/Fiat reserves--><g class="entity" data-entity="Crypto/Fiat reserves" data-source-line="19" data-uid="ent0012" id="entity_Crypto/Fiat reserves"><rect fill="#F1F1F1" height="46.2969" rx="2.5" ry="2.5" style="stroke:#181818;stroke-width:0.5;" width="182.1602" x="886.92" y="107.2969"/><rect fill="#F1F1F1" height="10" style="stroke:#181818;stroke-width:0.5;" width="15" x="1049.0802" y="112.2969"/><rect fill="#F1F1F1" height="2" style="stroke:#181818;stroke-width:0.5;" width="4" x="1047.0802" y="114.2969"/><rect fill="#F1F1F1" height="2" style="stroke:#181818;stroke-width:0.5;" width="4" x="1047.0802" y="118.2969"/><text fill="#000000" font-family="sans-serif" font-size="14" lengthAdjust="spacing" textLength="142.1602" x="901.92" y="140.292">Crypto/Fiat reserves</text></g><!--entity Market making--><g class="entity" data-entity="Market making" data-source-line="20" data-uid="ent0013" id="entity_Market making"><rect fill="#F1F1F1" height="46.2969" rx="2.5" ry="2.5" style="stroke:#181818;stroke-width:0.5;" width="145.0479" x="1104.48" y="107.2969"/><rect fill="#F1F1F1" height="10" style="stroke:#181818;stroke-width:0.5;" width="15" x="1229.5279" y="112.2969"/><rect fill="#F1F1F1" height="2" style="stroke:#181818;stroke-width:0.5;" width="4" x="1227.5279" y="114.2969"/><rect fill="#F1F1F1" height="2" style="stroke:#181818;stroke-width:0.5;" width="4" x="1227.5279" y="118.2969"/><text fill="#000000" font-family="sans-serif" font-size="14" lengthAdjust="spacing" textLength="105.0479" x="1119.48" y="140.292">Market making</text></g><!--entity Liquidity--><g class="entity" data-entity="Liquidity" data-source-line="25" data-uid="ent0016" id="entity_Liquidity"><ellipse cx="641" cy="560.7169" fill="#F1F1F1" rx="8" ry="8" style="stroke:#181818;stroke-width:0.5;"/><text fill="#000000" font-family="sans-serif" font-size="14" lengthAdjust="spacing" textLength="59.8896" x="611.0552" y="590.712">Liquidity</text></g><g class="entity" data-entity="GMN20" data-source-line="30" data-uid="ent0021" id="entity_GMN20"><path d="M666.29,87.6069 L666.29,173.2709 L851.7006,173.2709 L851.7006,97.6069 L841.7006,87.6069 L666.29,87.6069" fill="#FEFFDD" style="stroke:#181818;stroke-width:0.5;"/><path d="M841.7006,87.6069 L841.7006,97.6069 L851.7006,97.6069 L841.7006,87.6069" fill="#FEFFDD" style="stroke:#181818;stroke-width:1;"/><text fill="#000000" font-family="sans-serif" font-size="13" font-weight="bold" lengthAdjust="spacing" textLength="120.4976" x="672.29" y="104.6738">Key Interactions</text><text fill="#000000" font-family="sans-serif" font-size="13" lengthAdjust="spacing" textLength="153.9878" x="672.29" y="119.8066">1. Transaction initiation</text><text fill="#000000" font-family="sans-serif" font-size="13" lengthAdjust="spacing" textLength="164.4106" x="672.29" y="134.9394">2. API-driven settlements</text><text fill="#000000" font-family="sans-serif" font-size="13" lengthAdjust="spacing" textLength="123.7793" x="672.29" y="150.0722">3. Local fiat access</text><text fill="#000000" font-family="sans-serif" font-size="13" lengthAdjust="spacing" textLength="155.8159" x="672.29" y="165.205">4. Liquidity provisioning</text></g><!--link User to Merchant--><g class="link" data-entity-1="User" data-entity-2="Merchant" data-source-line="23" data-uid="lnk14" id="link_User_Merchant"><path d="M623.4672,177.8398 C623.2839,178.2396 623.0964,178.6372 622.9045,179.0324 C622.5208,179.8229 622.1195,180.6039 621.6998,181.3735 C620.8606,182.9127 619.9481,184.4064 618.9561,185.8393 C616.972,188.7052 614.67,191.3281 612,193.5869 C586.68,215.0069 559.88,178.3469 538,203.2769 C532.87,209.1194 530.4469,220.695 529.7089,234.8281 C529.3399,241.8947 529.3922,249.6006 529.7381,257.549 C529.7597,258.0458 529.4954,252.5503 529.5193,253.0489" fill="none" id="User-to-Merchant" style="stroke:#181818;stroke-width:1;"/><polygon fill="#181818" points="529.8064,259.042,533.3712,249.861,529.5672,254.0478,525.3804,250.2437,529.8064,259.042" style="stroke:#181818;stroke-width:1;"/><text fill="#000000" font-family="sans-serif" font-size="13" lengthAdjust="spacing" textLength="139.5596" x="546.8203" y="216.3438">1. Initiate transaction</text><text fill="#000000" font-family="sans-serif" font-size="13" lengthAdjust="spacing" textLength="155.2002" x="539" y="231.4766">(send, receive, convert)</text></g><!--link Merchant to Agent--><g class="link" data-entity-1="Merchant" data-entity-2="Agent" data-source-line="24" data-uid="lnk15" id="link_Merchant_Agent"><path d="M532.9671,393.7101 C532.92,393.8099 532.8726,393.9096 532.825,394.0091 C532.6344,394.4071 532.4395,394.8028 532.2401,395.196 C531.8414,395.9825 531.425,396.7588 530.9901,397.5232 C530.1203,399.0519 529.1766,400.5326 528.1528,401.9497 C526.1053,404.7841 523.7375,407.3644 521,409.5669 C506.57,421.1869 451.02,404.3869 438,417.5669 C427.0325,428.6669 420.7363,442.9125 417.4764,458.0833 C416.6614,461.876 416.0363,465.7265 415.5753,469.6001 C415.4601,470.5686 415.3551,471.5384 415.26,472.5092 C415.2362,472.7519 415.7679,467.0203 415.7454,467.2631" fill="none" id="Merchant-to-Agent" style="stroke:#181818;stroke-width:1;"/><polygon fill="#181818" points="415.1905,473.2374,420.0057,464.6459,415.6529,468.2588,412.04,463.906,415.1905,473.2374" style="stroke:#181818;stroke-width:1;"/><text fill="#000000" font-family="sans-serif" font-size="13" lengthAdjust="spacing" textLength="128.4067" x="439" y="430.6338">2. Process payment</text><text fill="#000000" font-family="sans-serif" font-size="13" lengthAdjust="spacing" textLength="125.4487" x="440.479" y="445.7666">via settlement APIs</text></g><!--link Agent to Liquidity--><g class="link" data-entity-1="Agent" data-entity-2="Liquidity" data-source-line="25" data-uid="lnk17" id="link_Agent_Liquidity"><path d="M434.0443,549.2524 C434.0718,549.2212 434.0993,549.1901 434.1268,549.1589 C435.0089,548.1629 435.956,547.1845 436.963,546.2623 C438.9769,544.4181 441.23,542.7994 443.68,541.7169 C501.82,516.0469 524.05,530.8969 586.68,541.7169 C603.53,544.6269 616.6554,549.8575 626.8254,554.5175" fill="none" id="Agent-to-Liquidity" style="stroke:#181818;stroke-width:1;"/><polygon fill="#181818" points="632.28,557.0169,625.7643,549.6314,627.7345,554.9341,622.4318,556.9042,632.28,557.0169" style="stroke:#181818;stroke-width:1;"/><text fill="#000000" font-family="sans-serif" font-size="13" lengthAdjust="spacing" textLength="141.2861" x="444.68" y="508.5738">3. Facilitate cash flow</text><text fill="#000000" font-family="sans-serif" font-size="13" lengthAdjust="spacing" textLength="140.9053" x="444.8704" y="523.7066">(local fiat conversion)</text></g><!--link Liquidity to User--><g class="link" data-entity-1="Liquidity" data-entity-2="User" data-source-line="26" data-uid="lnk18" id="link_Liquidity_User"><path d="M646.7,551.9569 C659,534.6569 687.77,491.1769 698,449.5669 C756.9,210.0169 707.9,214.0669 699,203.2769 C684.6,185.8169 665.71,208.8569 649,193.5869 C646.4288,191.2394 644.2163,188.5491 642.3133,185.6334 C641.3619,184.1756 640.4878,182.6614 639.685,181.1056 C639.2835,180.3277 638.8999,179.5393 638.5334,178.7424 C638.4417,178.5432 638.3512,178.3434 638.2616,178.1432 C638.2169,178.043 640.5919,183.4333 640.5476,183.3329" fill="none" id="Liquidity-to-User" style="stroke:#181818;stroke-width:1;"/><polygon fill="#181818" points="638.1282,177.8424,638.097,187.6912,640.1444,182.4178,645.4177,184.4652,638.1282,177.8424" style="stroke:#181818;stroke-width:1;"/><text fill="#000000" font-family="sans-serif" font-size="13" lengthAdjust="spacing" textLength="117.457" x="727.57" y="343.4838">4. Ensure liquidity</text><text fill="#000000" font-family="sans-serif" font-size="13" lengthAdjust="spacing" textLength="102.2163" x="735.1904" y="358.6166">for transactions</text></g><!--link Merchant to Liquidity--><g class="link" data-entity-1="Merchant" data-entity-2="Liquidity" data-source-line="27" data-uid="lnk19" id="link_Merchant_Liquidity"><path d="M549.1308,364.6814 C549.2289,364.8896 549.3278,365.0995 549.4274,365.3109 C551.0209,368.6933 552.8041,372.4783 554.7448,376.598 C562.5078,393.0766 572.7919,414.9088 583.5463,437.7406 C605.055,483.4044 625.8893,527.6384 634.7543,546.4684" fill="none" id="Merchant-to-Liquidity" style="stroke:#181818;stroke-width:1;"/><polygon fill="#181818" points="637.31,551.8969,637.0955,542.0504,635.1803,547.3731,629.8575,545.4579,637.31,551.8969" style="stroke:#181818;stroke-width:1;"/><text fill="#000000" font-family="sans-serif" font-size="13" lengthAdjust="spacing" textLength="62.6704" x="607.7383" y="430.6338">Real-time</text><text fill="#000000" font-family="sans-serif" font-size="13" lengthAdjust="spacing" textLength="100.147" x="589" y="445.7666">balance checks</text></g><!--link User to GMN20--><g class="link" data-entity-1="User" data-entity-2="GMN20" data-source-line="30" data-uid="lnk22" id="link_User_GMN20"><path d="M639.0194,130.4369 C639.3774,130.4369 639.7354,130.4369 640.0934,130.4369 C642.9575,130.4369 645.8213,130.4369 648.685,130.4369 C654.4125,130.4369 660.14,130.4369 665.87,130.4369" fill="none" id="User-GMN20" style="stroke:#181818;stroke-width:1;stroke-dasharray:7.0,7.0;"/></g><!--SRC=[PPDFQzj04CNl-oc6d1eJsVJFoGI3QHi8JOf9sbETmsGriWVBk-hksC6KVlVEI7AaK5qaiPetx_rc92mrmGsZP0ebV2TvYMa7o-ItBEJbaCYv44k2Yv-PqWLSNwyevHWM2_ZZGAzVju55woc390mPlN0C-QaxV5JLF7iWJtpKBwg3lZwvlsVDUz966CHqbqrJiqUh7iHNUDfJ46XIz9GpXqqll5pT0WUXJSA-twleSaETuYEb8tiQr3vZtXOSPkqz7gJNkeiUQwWq1A2tDYEnE_vzu9Bb1AiKZrns3BwWu3FciNGwDH9dHX8IAIgDsylVOzgHm1vthNsLDfHG50iuvuSvl9_2cUGOv3gyiybSgMZBy0fy34TASkbUYqsf3Qqo7wPcr490qx5RXoCZP1ATTCjIqMNNVM-LGy8vV9p23NgkMSo6LqnGrV55JTG3eyv0LdENRYWsgJRN73vDuMl8kZfGdu_NeOhfpOAyjJysyK1O5y9xMeTdh35uTR8blyis4xMLUBCLY5NRpi5ayerEoauezTAJYJESFuPkkYejMdrqXaWH56LId6449ZlB_zyoECip-6ji3Ioy3jFPFsEU_W40]--></g></svg>