<svg xmlns="http://www.w3.org/2000/svg" xmlns:xlink="http://www.w3.org/1999/xlink" contentStyleType="text/css" data-diagram-type="DESCRIPTION" height="988.5417px" preserveAspectRatio="none" style="width:964px;height:988px;" version="1.1" viewBox="0 0 964 988" width="964.5833px" zoomAndPan="magnify"><title>Merchants (Businesses &amp; Payment Processors) - Fiatsend Use Case Diagram</title><defs><linearGradient id="gd2epucyn19n00" x1="50%" x2="50%" y1="0%" y2="100%"><stop offset="0%" stop-color="#EDF0F2"/><stop offset="100%" stop-color="#E9ECEF"/></linearGradient><linearGradient id="gd2epucyn19n01" x1="50%" x2="50%" y1="0%" y2="100%"><stop offset="0%" stop-color="#59B6EC"/><stop offset="100%" stop-color="#2FA4E7"/></linearGradient><linearGradient id="gd2epucyn19n02" x1="50%" x2="50%" y1="0%" y2="100%"><stop offset="0%" stop-color="#35638F"/><stop offset="100%" stop-color="#033C73"/></linearGradient></defs><g><rect fill="url(#gd2epucyn19n00)" height="47.168" rx="4.1667" ry="4.1667" style="stroke:#BABDBF;stroke-width:1.0417;" width="920.2555" x="20.8333" y="20.8333"/><text fill="#2FA4E7" font-family="Verdana" font-size="20.8333" font-weight="bold" lengthAdjust="spacing" textLength="897.3389" x="32.2917" y="51.6296">Merchants (Businesses &amp; Payment Processors) - Fiatsend Use Case Diagram</text><!--cluster Fiatsend System--><g class="cluster" data-entity="Fiatsend System" data-source-line="9" data-uid="ent0003" id="cluster_Fiatsend System"><rect fill="none" height="470.8333" rx="4.1667" ry="4.1667" style="stroke:#59B6EC;stroke-width:2.0833;" width="307.1875" x="571.7007" y="196.043"/><text fill="#2FA4E7" font-family="Verdana" font-size="12.5" font-weight="bold" lengthAdjust="spacing" textLength="117.4194" x="666.5847" y="214.9374">Fiatsend System</text></g><!--cluster Example Use Cases--><g class="cluster" data-entity="Example Use Cases" data-source-line="31" data-uid="ent0017" id="cluster_Example Use Cases"><rect fill="none" height="285.4167" rx="4.1667" ry="4.1667" style="stroke:#59B6EC;stroke-width:2.0833;" width="311.1458" x="569.7215" y="691.8763"/><text fill="#2FA4E7" font-family="Verdana" font-size="12.5" font-weight="bold" lengthAdjust="spacing" textLength="135.5103" x="657.5393" y="710.7708">Example Use Cases</text></g><g class="entity" data-entity="UC1" data-source-line="10" data-uid="ent0004" id="entity_UC1"><ellipse cx="725.2957" cy="270.0016" fill="url(#gd2epucyn19n01)" rx="136.9284" ry="29.8857" style="stroke:#2FA4E7;stroke-width:2.0833;"/><text fill="#FFFFFF" font-family="Verdana" font-size="12.5" lengthAdjust="spacing" textLength="213.7878" x="618.4018" y="272.2456">Instant Crypto-to-Fiat Settlements</text></g><g class="entity" data-entity="UC2" data-source-line="11" data-uid="ent0005" id="entity_UC2"><ellipse cx="725.2985" cy="359.5855" fill="url(#gd2epucyn19n01)" rx="103.8583" ry="23.2717" style="stroke:#2FA4E7;stroke-width:2.0833;"/><text fill="#FFFFFF" font-family="Verdana" font-size="12.5" lengthAdjust="spacing" textLength="135.2112" x="657.6929" y="361.8295">Low Transaction Fees</text></g><g class="entity" data-entity="UC3" data-source-line="12" data-uid="ent0006" id="entity_UC3"><ellipse cx="725.2908" cy="446.0443" fill="url(#gd2epucyn19n01)" rx="123.7047" ry="27.2409" style="stroke:#2FA4E7;stroke-width:2.0833;"/><text fill="#FFFFFF" font-family="Verdana" font-size="12.5" lengthAdjust="spacing" textLength="183.4167" x="633.5824" y="448.2884">Multi-Chain Payment Support</text></g><g class="entity" data-entity="UC4" data-source-line="13" data-uid="ent0007" id="entity_UC4"><ellipse cx="725.2914" cy="534.5882" fill="url(#gd2epucyn19n01)" rx="112.3095" ry="24.9619" style="stroke:#2FA4E7;stroke-width:2.0833;"/><text fill="#FFFFFF" font-family="Verdana" font-size="12.5" lengthAdjust="spacing" textLength="156.25" x="647.1664" y="536.8323">Seamless API Integration</text></g><g class="entity" data-entity="UC5" data-source-line="14" data-uid="ent0008" id="entity_UC5"><ellipse cx="725.2946" cy="623.1222" fill="url(#gd2epucyn19n01)" rx="121.0731" ry="26.7146" style="stroke:#2FA4E7;stroke-width:2.0833;"/><text fill="#FFFFFF" font-family="Verdana" font-size="12.5" lengthAdjust="spacing" textLength="177.24" x="636.6746" y="625.3662">KYC &amp; Compliance Solutions</text></g><g class="entity" data-entity="EX1" data-source-line="32" data-uid="ent0018" id="entity_EX1"><ellipse cx="725.2923" cy="756.458" fill="url(#gd2epucyn19n01)" rx="78.8104" ry="20.7797" style="stroke:#2FA4E7;stroke-width:2.0833;"/><text fill="#FFFFFF" font-family="Verdana" font-size="12.5" lengthAdjust="spacing" textLength="84.1187" x="683.233" y="758.7021">Online Stores</text></g><g class="entity" data-entity="EX2" data-source-line="33" data-uid="ent0019" id="entity_EX2"><ellipse cx="725.2915" cy="838.7466" fill="url(#gd2epucyn19n01)" rx="111.3825" ry="24.7765" style="stroke:#2FA4E7;stroke-width:2.0833;"/><text fill="#FFFFFF" font-family="Verdana" font-size="12.5" lengthAdjust="spacing" textLength="153.9856" x="648.2987" y="840.9906">Gig Workers/Freelancers</text></g><g class="entity" data-entity="EX3" data-source-line="34" data-uid="ent0020" id="entity_EX3"><ellipse cx="725.2938" cy="930.4178" fill="url(#gd2epucyn19n01)" rx="138.9056" ry="30.2811" style="stroke:#2FA4E7;stroke-width:2.0833;"/><text fill="#FFFFFF" font-family="Verdana" font-size="12.5" lengthAdjust="spacing" textLength="218.2495" x="616.169" y="932.6619">Physical Merchants (QR Payments)</text></g><!--entity Merchant--><g class="entity" data-entity="Merchant" data-source-line="7" data-uid="ent0002" id="entity_Merchant"><ellipse cx="185.2836" cy="499.7096" fill="#B0C4DE" rx="8.3333" ry="8.3333" style="stroke:#2FA4E7;stroke-width:1.0417;"/><path d="M185.2836,508.043 L185.2836,536.168 M171.7419,516.3763 L198.8252,516.3763 M185.2836,536.168 L171.7419,551.793 M185.2836,536.168 L198.8252,551.793" fill="none" style="stroke:#2FA4E7;stroke-width:1.0417;"/><text fill="#343A40" font-family="Verdana" font-size="12.5" lengthAdjust="spacing" textLength="179.2908" x="95.6382" y="570.6874">Business/Payment Processor</text></g><g class="entity" data-entity="GMN14" data-source-line="24" data-uid="ent0015" id="entity_GMN14"><path d="M588.1903,89.8763 L588.1903,175.1302 A4.1667,4.1667 0 0 0 592.3569,179.2969 L858.2281,179.2969 A4.1667,4.1667 0 0 0 862.3948,175.1302 L862.3948,96.1263 L851.9781,85.7096 L592.3569,85.7096 A4.1667,4.1667 0 0 0 588.1903,89.8763" fill="url(#gd2epucyn19n02)" style="stroke:#033C73;stroke-width:1.0417;"/><path d="M851.9781,85.7096 L851.9781,94.043 A2.0833,2.0833 0 0 0 854.0614,96.1263 L862.3948,96.1263 L851.9781,85.7096" fill="url(#gd2epucyn19n02)" style="stroke:#033C73;stroke-width:1.0417;"/><text fill="#FFFFFF" font-family="Verdana" font-size="12.5" font-weight="bold" lengthAdjust="spacing" textLength="93.0725" x="599.6486" y="107.7291">Key Features</text><text fill="#FFFFFF" font-family="Verdana" font-size="12.5" lengthAdjust="spacing" textLength="217.3828" x="599.6486" y="122.2799">- Instant settlements and low fees.</text><text fill="#FFFFFF" font-family="Verdana" font-size="12.5" lengthAdjust="spacing" textLength="229.071" x="599.6486" y="136.8306">- Multi-chain support for stablecoins.</text><text fill="#FFFFFF" font-family="Verdana" font-size="12.5" lengthAdjust="spacing" textLength="241.9128" x="599.6486" y="151.3814">- Easy API integration for e-commerce.</text><text fill="#FFFFFF" font-family="Verdana" font-size="12.5" lengthAdjust="spacing" textLength="223.0164" x="599.6486" y="165.9322">- Built-in KYC/Compliance solutions.</text></g><!--link Merchant to UC1--><g class="link" data-entity-1="Merchant" data-entity-2="UC1" data-source-line="17" data-uid="lnk9" id="link_Merchant_UC1"><path d="M199.5965,489.8867 C216.8049,440.3555 251.8986,362.3034 311.3882,323.1263 C395.7319,267.5846 504.7852,256.7228 592.0977,258.4311" fill="none" id="Merchant-to-UC1" style="stroke:#2FA4E7;stroke-width:3.125;"/><polygon fill="#2FA4E7" points="598.3465,258.5534,589.0548,254.2041,593.1392,258.4515,588.8918,262.5359,598.3465,258.5534" style="stroke:#2FA4E7;stroke-width:3.125;"/><text fill="#343A40" font-family="Verdana" font-size="12.5" lengthAdjust="spacing" textLength="229.2664" x="317.6382" y="251.0103">Receive fiat payments automatically</text></g><!--link Merchant to UC2--><g class="link" data-entity-1="Merchant" data-entity-2="UC2" data-source-line="18" data-uid="lnk10" id="link_Merchant_UC2"><path d="M216.9819,490.0326 C239.534,461.0742 272.8569,425.3242 311.3882,406.4596 C410.5132,357.9284 532.3794,350.5236 619.4211,352.5341" fill="none" id="Merchant-to-UC2" style="stroke:#2FA4E7;stroke-width:3.125;"/><polygon fill="#2FA4E7" points="625.6694,352.6784,616.3931,348.2964,620.4625,352.5581,616.2007,356.6275,625.6694,352.6784" style="stroke:#2FA4E7;stroke-width:3.125;"/><text fill="#343A40" font-family="Verdana" font-size="12.5" lengthAdjust="spacing" textLength="218.0847" x="323.3674" y="345.4166">Cost-effective payment processing</text></g><!--link Merchant to UC3--><g class="link" data-entity-1="Merchant" data-entity-2="UC3" data-source-line="19" data-uid="lnk11" id="link_Merchant_UC3"><path d="M280.534,498.168 C290.8465,494.9909 301.2736,492.1055 311.3882,489.793 C408.1799,467.668 514.1098,457.0968 597.0786,451.6697" fill="none" id="Merchant-to-UC3" style="stroke:#2FA4E7;stroke-width:3.125;"/><polygon fill="#2FA4E7" points="603.3153,451.2617,593.6883,447.7159,598.118,451.6017,594.2322,456.0314,603.3153,451.2617" style="stroke:#2FA4E7;stroke-width:3.125;"/><text fill="#343A40" font-family="Verdana" font-size="12.5" lengthAdjust="spacing" textLength="117.395" x="373.7366" y="432.9166">Accept stablecoins</text><text fill="#343A40" font-family="Verdana" font-size="12.5" lengthAdjust="spacing" textLength="161.8835" x="351.4924" y="447.4674">from multiple blockchains</text></g><!--link Merchant to UC4--><g class="link" data-entity-1="Merchant" data-entity-2="UC4" data-source-line="20" data-uid="lnk12" id="link_Merchant_UC4"><path d="M280.6382,534.5846 C373.2944,534.5846 508.4194,534.5846 606.5653,534.5846" fill="none" id="Merchant-to-UC4" style="stroke:#2FA4E7;stroke-width:3.125;"/><polygon fill="#2FA4E7" points="612.8153,534.5846,603.4403,530.418,607.6069,534.5846,603.4403,538.7513,612.8153,534.5846" style="stroke:#2FA4E7;stroke-width:3.125;"/><text fill="#343A40" font-family="Verdana" font-size="12.5" lengthAdjust="spacing" textLength="88.0188" x="388.5234" y="511.8124">Integrate with</text><text fill="#343A40" font-family="Verdana" font-size="12.5" lengthAdjust="spacing" textLength="113.1226" x="375.9715" y="526.3632">existing platforms</text></g><!--link Merchant to UC5--><g class="link" data-entity-1="Merchant" data-entity-2="UC5" data-source-line="21" data-uid="lnk13" id="link_Merchant_UC5"><path d="M280.5653,561.9701 C290.9194,564.5326 301.3465,566.9284 311.3882,568.9596 C412.7215,589.4284 523.454,603.2828 606.954,612.0953" fill="none" id="Merchant-to-UC5" style="stroke:#2FA4E7;stroke-width:3.125;"/><polygon fill="#2FA4E7" points="613.1694,612.7513,604.2835,607.6237,607.9899,612.2047,603.4089,615.911,613.1694,612.7513" style="stroke:#2FA4E7;stroke-width:3.125;"/><text fill="#343A40" font-family="Verdana" font-size="12.5" lengthAdjust="spacing" textLength="182.4585" x="341.0757" y="560.7708">Ensure regulatory adherence</text></g><!--link Merchant to GMN14--><g class="link" data-entity-1="Merchant" data-entity-2="GMN14" data-source-line="24" data-uid="lnk16" id="link_Merchant_GMN14"><path d="M191.3569,489.918 C201.4611,422.0742 230.6694,293.7201 311.3882,225.2096 C387.7007,160.4388 499.7319,138.3555 587.8465,131.8659" fill="none" id="Merchant-GMN14" style="stroke:#2FA4E7;stroke-width:3.125;stroke-dasharray:7.0,7.0;"/></g><!--link Merchant to EX1--><g class="link" data-entity-1="Merchant" data-entity-2="EX1" data-source-line="37" data-uid="lnk21" id="link_Merchant_EX1"><path d="M222.2424,579.0846 C245.1903,604.6992 277.0132,635.4596 311.3882,654.3763 C420.2215,714.2721 558.1303,738.7907 644.1407,749.072" fill="none" id="Merchant-to-EX1" style="stroke:#2FA4E7;stroke-width:3.125;"/><polygon fill="#2FA4E7" points="650.3465,749.8138,641.5323,744.5639,645.175,749.1956,640.5432,752.8383,650.3465,749.8138" style="stroke:#2FA4E7;stroke-width:3.125;"/><text fill="#343A40" font-family="Verdana" font-size="12.5" lengthAdjust="spacing" textLength="128.4973" x="368.0654" y="631.6041">Accept USDC, USDT,</text><text fill="#343A40" font-family="Verdana" font-size="12.5" lengthAdjust="spacing" textLength="141.8518" x="361.3882" y="646.1549">cUSD payments online</text></g><!--link Merchant to EX2--><g class="link" data-entity-1="Merchant" data-entity-2="EX2" data-source-line="38" data-uid="lnk22" id="link_Merchant_EX2"><path d="M195.4611,579.1159 C209.6694,636.2096 242.8986,733.6576 311.3882,782.5013 C402.6799,847.6055 528.5321,854.8166 618.5529,850.1187" fill="none" id="Merchant-to-EX2" style="stroke:#2FA4E7;stroke-width:3.125;"/><polygon fill="#2FA4E7" points="624.7944,849.793,615.215,846.1206,619.5932,850.0644,615.6493,854.4426,624.7944,849.793" style="stroke:#2FA4E7;stroke-width:3.125;"/><text fill="#343A40" font-family="Verdana" font-size="12.5" lengthAdjust="spacing" textLength="150.8423" x="357.2215" y="759.7291">Enable global payments</text><text fill="#343A40" font-family="Verdana" font-size="12.5" lengthAdjust="spacing" textLength="121.4355" x="371.9249" y="774.2799">without middlemen</text></g><!--link Merchant to EX3--><g class="link" data-entity-1="Merchant" data-entity-2="EX3" data-source-line="39" data-uid="lnk23" id="link_Merchant_EX3"><path d="M186.9194,579.2826 C190.6278,658.2513 210.784,821.418 311.3882,899.168 C399.6903,967.4076 526.5443,965.257 617.586,952.2987" fill="none" id="Merchant-to-EX3" style="stroke:#2FA4E7;stroke-width:3.125;"/><polygon fill="#2FA4E7" points="623.7736,951.418,613.905,948.6139,618.6172,952.1519,615.0793,956.8641,623.7736,951.418" style="stroke:#2FA4E7;stroke-width:3.125;"/><text fill="#343A40" font-family="Verdana" font-size="12.5" lengthAdjust="spacing" textLength="122.3755" x="371.5098" y="876.3958">Seamless in-person</text><text fill="#343A40" font-family="Verdana" font-size="12.5" lengthAdjust="spacing" textLength="147.8271" x="358.784" y="890.9465">payments via QR codes</text></g><!--SRC=[PLHTQzj047o_Nx5reJGcIcW-Nae8n8fJGXBgnWbjmI-Nqqe-VBeLTwSaekI_Tq-sv2zZPB1cTdPtvkvJc6E9eD3L1gKL8kXW41xGgRcqmSFNKUsrHU_HmnUOoAP46s3YIF5_vFm1972ZPV1eCtZs2AdanxMMXPEb40Rp0870wM8U8DCELT34Eb85ShqEI0-3JkbuJsK0d-zZWMb0D2DJen2naBG5zphevQUD3rWEu9y0_jGULUnbS6jzY1gfQwf02NyZ0wOOUDGev0TH_pdzjisxfpTuSj9wsVOCDuWTycGR-L2Re9DqBhNjLpIjgufSM15EjmbJbANXqU1gSWktDY1lAsgiq6VRwBk_AUy-fR8oMbg5C2LJHtZNphdu4ABVPP9Snc7WEpoYGlsAaCTvgsLZ7cGTg6Gv9OrfTcadJ4l9XmJpF7h5x1KHggKTsXQxf5CcNIc5LG1UzOj1HThwcSqTbL36vLHir8iXjL1nINwtm1aNwDQ0yAR3V6RnNVl0Ob0P6N9ovHxhd5bZwsk7uB2e6KQk0PdDqI6lIGXBN6qPFShxi8dXy0uRjbC6flhXK2JGPSIlGm6I8sKu0pdxViIOfSlj0E2NxWBtjJboX8sbRrfVzThN5eU9ehBa9Z32HhKs8U5IxExnXhU-y_P8n4p74RRIFdwNPTncTzRyNjv_MiFd2AQyZLLWntzselr35_2Rt0ATFxvnVAYYjEl0E-cUp1iVmx9vA_nwx8Bk3rQiqxqGikmw6C_Jw_GmFfyEPrRnxpgGr3QyoprftOshXSBG2-jtX9cD2Q4wGAcphBLhbnmJsHyoRPEAfoCxixtcgvR0GoZAq0lX5vfVyOtLJxtSwKYgHU6ejbbAXjp5nGERVta9ozjeqRHtKGiabw7R1grlguYuSexUMi36Yu__]--></g></svg>