<svg xmlns="http://www.w3.org/2000/svg" xmlns:xlink="http://www.w3.org/1999/xlink" contentStyleType="text/css" data-diagram-type="DESCRIPTION" height="655px" preserveAspectRatio="none" style="width:800px;height:655px;background:#FFFFFF;" version="1.1" viewBox="0 0 800 655" width="800px" zoomAndPan="magnify"><title>Users (End Consumers) - Fiatsend Use Case Diagram</title><defs/><g><text fill="#000000" font-family="sans-serif" font-size="14" font-weight="bold" lengthAdjust="spacing" textLength="416.083" x="185.2596" y="22.9951">Users (End Consumers) - Fiatsend Use Case Diagram</text><!--cluster Fiatsend System--><g class="cluster" data-entity="Fiatsend System" data-source-line="7" data-uid="ent0003" id="cluster_Fiatsend System"><rect fill="none" height="535" rx="2.5" ry="2.5" style="stroke:#181818;stroke-width:1;" width="345.19" x="396.43" y="114.9969"/><text fill="#000000" font-family="sans-serif" font-size="14" font-weight="bold" lengthAdjust="spacing" textLength="131.5098" x="503.2701" y="129.992">Fiatsend System</text></g><g class="entity" data-entity="UC1" data-source-line="8" data-uid="ent0004" id="entity_UC1"><ellipse cx="569.0188" cy="178.9986" fill="#F1F1F1" rx="135.2588" ry="29.4518" style="stroke:#181818;stroke-width:0.5;"/><text fill="#000000" font-family="sans-serif" font-size="14" lengthAdjust="spacing" textLength="239.6543" x="449.1917" y="181.8453">Instant Fiat &amp; Crypto Transactions</text></g><g class="entity" data-entity="UC2" data-source-line="9" data-uid="ent0005" id="entity_UC2"><ellipse cx="569.0176" cy="268.9984" fill="#F1F1F1" rx="116.9076" ry="25.7815" style="stroke:#181818;stroke-width:0.5;"/><text fill="#000000" font-family="sans-serif" font-size="14" lengthAdjust="spacing" textLength="200.7441" x="468.6455" y="271.8451">Multiple Onboarding Options</text></g><g class="entity" data-entity="UC3" data-source-line="10" data-uid="ent0006" id="entity_UC3"><ellipse cx="569.0223" cy="351.9933" fill="#F1F1F1" rx="99.3823" ry="22.2765" style="stroke:#181818;stroke-width:0.5;"/><text fill="#000000" font-family="sans-serif" font-size="14" lengthAdjust="spacing" textLength="162.6953" x="487.6746" y="354.84">Multi-Currency Support</text></g><g class="entity" data-entity="UC4" data-source-line="11" data-uid="ent0007" id="entity_UC4"><ellipse cx="569.0207" cy="442.995" fill="#F1F1F1" rx="156.5907" ry="33.7181" style="stroke:#181818;stroke-width:0.5;"/><text fill="#000000" font-family="sans-serif" font-size="14" lengthAdjust="spacing" textLength="284.1768" x="426.9323" y="445.8417">On-Chain Identity &amp; Account Abstraction</text></g><g class="entity" data-entity="UC5" data-source-line="12" data-uid="ent0008" id="entity_UC5"><ellipse cx="569.018" cy="533.9945" fill="#F1F1F1" rx="100.238" ry="22.4476" style="stroke:#181818;stroke-width:0.5;"/><text fill="#000000" font-family="sans-serif" font-size="14" lengthAdjust="spacing" textLength="164.582" x="486.727" y="536.8412">Cross-Border Payments</text></g><g class="entity" data-entity="UC6" data-source-line="13" data-uid="ent0009" id="entity_UC6"><ellipse cx="569.0204" cy="612.999" fill="#F1F1F1" rx="94.5104" ry="21.3021" style="stroke:#181818;stroke-width:0.5;"/><text fill="#000000" font-family="sans-serif" font-size="14" lengthAdjust="spacing" textLength="151.8809" x="493.08" y="615.8456">Rewards &amp; Incentives</text></g><!--entity User--><g class="entity" data-entity="User" data-source-line="5" data-uid="ent0002" id="entity_User"><ellipse cx="57.2217" cy="322.3469" fill="#F1F1F1" rx="8" ry="8" style="stroke:#181818;stroke-width:0.5;"/><path d="M57.2217,330.3469 L57.2217,357.3469 M44.2217,338.3469 L70.2217,338.3469 M57.2217,357.3469 L44.2217,372.3469 M57.2217,357.3469 L70.2217,372.3469" fill="none" style="stroke:#181818;stroke-width:0.5;"/><text fill="#000000" font-family="sans-serif" font-size="14" lengthAdjust="spacing" textLength="102.4434" x="6" y="386.842">End Consumer</text></g><g class="entity" data-entity="GMN16" data-source-line="24" data-uid="ent0017" id="entity_GMN16"><path d="M344.44,43.2969 L344.44,98.6953 L793.6021,98.6953 L793.6021,53.2969 L783.6021,43.2969 L344.44,43.2969" fill="#FEFFDD" style="stroke:#181818;stroke-width:0.5;"/><path d="M783.6021,43.2969 L783.6021,53.2969 L793.6021,53.2969 L783.6021,43.2969" fill="#FEFFDD" style="stroke:#181818;stroke-width:1;"/><text fill="#000000" font-family="sans-serif" font-size="13" font-weight="bold" lengthAdjust="spacing" textLength="96.7954" x="350.44" y="60.3638">Key Features</text><text fill="#000000" font-family="sans-serif" font-size="13" lengthAdjust="spacing" textLength="344.5635" x="350.44" y="75.4966">- Fast, secure, cost-effective fiat-crypto transactions.</text><text fill="#000000" font-family="sans-serif" font-size="13" lengthAdjust="spacing" textLength="428.1621" x="350.44" y="90.6294">- Seamless experience for remittances, payments, and cash-outs.</text></g><!--link User to UC1--><g class="link" data-entity-1="User" data-entity-2="UC1" data-source-line="16" data-uid="lnk10" id="link_User_UC1"><path d="M75.65,313.4569 C89.11,288.3169 110.22,257.1169 138.44,239.9969 C228.29,185.5069 341.7802,172.3361 431.9302,171.5961" fill="none" id="User-to-UC1" style="stroke:#181818;stroke-width:1;"/><polygon fill="#181818" points="437.93,171.5469,428.8975,167.6209,432.9302,171.5879,428.9631,175.6206,437.93,171.5469" style="stroke:#181818;stroke-width:1;"/><text fill="#000000" font-family="sans-serif" font-size="13" lengthAdjust="spacing" textLength="150.1792" x="151.44" y="178.7938">Convert/Transfer funds</text></g><!--link User to UC2--><g class="link" data-entity-1="User" data-entity-2="UC2" data-source-line="17" data-uid="lnk11" id="link_User_UC2"><path d="M108.52,324.2569 C118.21,319.8669 128.46,315.8369 138.44,312.9969 C241.92,283.5469 358.3743,273.5147 446.0143,270.1847" fill="none" id="User-to-UC2" style="stroke:#181818;stroke-width:1;"/><polygon fill="#181818" points="452.01,269.9569,442.8646,266.3015,447.0136,270.1467,443.1684,274.2957,452.01,269.9569" style="stroke:#181818;stroke-width:1;"/><text fill="#000000" font-family="sans-serif" font-size="13" lengthAdjust="spacing" textLength="72.3823" x="190.3543" y="261.3938">Sign up via</text><text fill="#000000" font-family="sans-serif" font-size="13" lengthAdjust="spacing" textLength="124.2109" x="164.44" y="276.5266">wallet/email/phone</text></g><!--link User to UC3--><g class="link" data-entity-1="User" data-entity-2="UC3" data-source-line="18" data-uid="lnk12" id="link_User_UC3"><path d="M108.5,351.9969 C192.15,351.9969 355.37,351.9969 463.47,351.9969" fill="none" id="User-to-UC3" style="stroke:#181818;stroke-width:1;"/><polygon fill="#181818" points="469.47,351.9969,460.47,347.9969,464.47,351.9969,460.47,355.9969,469.47,351.9969" style="stroke:#181818;stroke-width:1;"/><text fill="#000000" font-family="sans-serif" font-size="13" lengthAdjust="spacing" textLength="72.4585" x="190.2383" y="333.0638">Transact in</text><text fill="#000000" font-family="sans-serif" font-size="13" lengthAdjust="spacing" textLength="99.0552" x="176.94" y="348.1966">stablecoins/fiat</text></g><!--link User to UC4--><g class="link" data-entity-1="User" data-entity-2="UC4" data-source-line="19" data-uid="lnk13" id="link_User_UC4"><path d="M108.83,369.0269 C118.59,371.9469 128.78,374.7569 138.44,376.9969 C234.93,399.3069 339.4504,415.3211 424.2004,426.3711" fill="none" id="User-to-UC4" style="stroke:#181818;stroke-width:1;"/><polygon fill="#181818" points="430.15,427.1469,421.7427,422.0168,425.192,426.5004,420.7084,429.9497,430.15,427.1469" style="stroke:#181818;stroke-width:1;"/><text fill="#000000" font-family="sans-serif" font-size="13" lengthAdjust="spacing" textLength="174.9922" x="139.44" y="373.0638">Simplify Web3 interactions</text></g><!--link User to UC5--><g class="link" data-entity-1="User" data-entity-2="UC5" data-source-line="20" data-uid="lnk14" id="link_User_UC5"><path d="M87.55,390.2669 C101.44,406.1169 119.2,423.4469 138.44,434.9969 C241.46,496.8469 373.717,519.4984 465.227,528.2084" fill="none" id="User-to-UC5" style="stroke:#181818;stroke-width:1;"/><polygon fill="#181818" points="471.2,528.7769,462.6195,523.9421,466.2225,528.3031,461.8615,531.9061,471.2,528.7769" style="stroke:#181818;stroke-width:1;"/><text fill="#000000" font-family="sans-serif" font-size="13" lengthAdjust="spacing" textLength="172.4023" x="140.44" y="431.0638">Enable global transactions</text></g><!--link User to UC6--><g class="link" data-entity-1="User" data-entity-2="UC6" data-source-line="21" data-uid="lnk15" id="link_User_UC6"><path d="M65.65,390.6369 C75.38,430.5669 96.41,491.7369 138.44,525.9969 C234.44,604.2369 376,618.1721 470.76,617.9321" fill="none" id="User-to-UC6" style="stroke:#181818;stroke-width:1;"/><polygon fill="#181818" points="476.76,617.9169,467.7499,613.9397,471.76,617.9295,467.7702,621.9397,476.76,617.9169" style="stroke:#181818;stroke-width:1;"/><text fill="#000000" font-family="sans-serif" font-size="13" lengthAdjust="spacing" textLength="130.5142" x="161.44" y="522.0638">Earn points/rewards</text></g><!--link User to GMN16--><g class="link" data-entity-1="User" data-entity-2="GMN16" data-source-line="24" data-uid="lnk18" id="link_User_GMN16"><path d="M63.25,313.5769 C71.17,269.1669 90.91,197.1669 138.44,157.9969 C195.77,110.7569 271.85,86.8869 344.04,75.4469" fill="none" id="User-GMN16" style="stroke:#181818;stroke-width:1;stroke-dasharray:7.0,7.0;"/></g><!--SRC=[RP9FYzj03CNlyoc43wKDSKFttw67mjRTXL1AIhDBBtkPsB8pCDOC8pbRK_hTgt6Iua1p2CJvIU_vwOaJZ_3Cc1ZUFb03LI0UUltv3afuT5OOzQa2K5dz-k9ibsnlZCTMG08ar-q56fUm5XV865jBIDD6i0p5V6TXJCOiTQfP_5k-7LcmB-2t0VqCZ7LMAjR4Yifa0jv0bSQeUa_94jj9Yukiy5nzk9pxDdXnKHKsj0isDOuwsCJvmDL_1ifgI0cf7c4xn1YIdDZhItP3PRMtZc3T88cJKPtTrtKOrEZzZYKThPs6Row7gnIOoyyXDHhETplskkBiwVOI_O6lQfrr-vhgh7J0Ctbd_XWpvLkMd_BhmyUSy06JhAPqMlsh7QZXENMbrDPr14E4WxClz6gzHrbXRvrVnNqWdEFNYf-Z1aSl-HOxZtLmnAjMBpA7RwRTVVIk7U4dxgvrGl0KnOMBMoKVA6-2peUTzI2pUyx9kqpQH11LKdYLZe4OGq7mrBhGJZqpYyLN7E4HhGm9UR4msbpBiWHDKvyieGui9RPjxkW18VilwsEVvlhlTN2BjlV83FWhOdBQ2EMrq0bx9zh76da9yNIx9LZjhrviNuP1T3xNEHly2m00]--></g></svg>